<?xml version="1.0" encoding="UTF-8" standalone="no"?>
<svg
   xmlns:dc="http://purl.org/dc/elements/1.1/"
   xmlns:cc="http://creativecommons.org/ns#"
   xmlns:rdf="http://www.w3.org/1999/02/22-rdf-syntax-ns#"
   xmlns:svg="http://www.w3.org/2000/svg"
   xmlns="http://www.w3.org/2000/svg"
   xmlns:sodipodi="http://sodipodi.sourceforge.net/DTD/sodipodi-0.dtd"
   xmlns:inkscape="http://www.inkscape.org/namespaces/inkscape"
   version="1.1"
   data-icon="cloud-transfer-download"
   data-container-transform="scale(1 1 ) translate(0 )"
   viewBox="0 0 40 40"
   x="0px"
   y="0px"
   id="svg2"
   inkscape:version="0.91 r13725"
   sodipodi:docname="noun_45877_cc.svg"
   width="40"
   height="40"
   inkscape:export-filename="C:\Users\ernst\Desktop\SeagateDownloader\assets\img\fail.png"
   inkscape:export-xdpi="337.5"
   inkscape:export-ydpi="337.5">
  <metadata
     id="metadata14">
    <rdf:RDF>
      <cc:Work
         rdf:about="">
        <dc:format>image/svg+xml</dc:format>
        <dc:type
           rdf:resource="http://purl.org/dc/dcmitype/StillImage" />
        <dc:title></dc:title>
      </cc:Work>
    </rdf:RDF>
  </metadata>
  <defs
     id="defs12" />
  <sodipodi:namedview
     pagecolor="#ffffff"
     bordercolor="#666666"
     borderopacity="1"
     objecttolerance="10"
     gridtolerance="10"
     guidetolerance="10"
     inkscape:pageopacity="0"
     inkscape:pageshadow="2"
     inkscape:window-width="1408"
     inkscape:window-height="856"
     id="namedview10"
     showgrid="false"
     inkscape:zoom="4.17193"
     inkscape:cx="11.595072"
     inkscape:cy="20.395916"
     inkscape:window-x="0"
     inkscape:window-y="0"
     inkscape:window-maximized="0"
     inkscape:current-layer="g4150" />
  <path
     id="path3348"
     d="m 234.84588,2.298417 c -4.7,0 -8.6,3.3999999 -9,8 -2.9,0.9 -5,3.799999 -5,6.999999 0,3.5 2.6,6.5 6,7 l 6,0 0,-2.094 c -0.6,-0.6 -1,-1.506 -1,-2.406 0,-1.9 1.6,-3.5 3.5,-3.5 1.9,0 3.5,1.6 3.5,3.5 0,1 -0.4,1.806 -1,2.406 l 0,2.094 10,0 c 2.8,0 5,-2.2 5,-5 0,-2.8 -2.2,-5 -5,-5 -0.4,-2 -2.1,-3.505999 -4,-3.905999 -0.5,-4.5000001 -4.3,-8.094 -9,-8.094 z m 0.5,14.999999 c -1.381,0 -2.5,1.119 -2.5,2.5 0,0.822 0.388,1.544 1,2 l 0,6.5 -2.5,0 c -0.3,0 -0.387,0.206 -0.188,0.406 l 3.875,5.188 c 0.2,0.2 0.425,0.2 0.625,0 l 3.875,-5.188 c 0.2,-0.2 0.113,-0.406 -0.188,-0.406 l -2.5,0 0,-6.5 c 0.612,-0.456 1,-1.178 1,-2 0,-1.381 -1.119,-2.5 -2.5,-2.5 z"
     inkscape:connector-curvature="0"
     style="fill:#07ff0d;fill-opacity:1" />
  <g
     id="g4150"
     transform="translate(3.9152542,2.009356)">
    <rect
       style="fill-opacity:0;fill:#000000;stroke:none;stroke-opacity:1"
       id="rect4154"
       width="38"
       height="38"
       x="-2.9152541"
       y="-1.009356"
       ry="2.2771235" />
    <path
       sodipodi:nodetypes="scscccsssccssccs"
       inkscape:connector-curvature="0"
       d="m 14.084746,2.118644 c -4.7000004,0 -8.6000004,3.4000005 -9.0000004,8.000001 -2.9,0.9 -5,3.799999 -5,7 0,3.5 2.6,6.5 6,7 l 6.0000004,0 0,-2.094 c -0.6,-0.6 -1,-1.506 -1,-2.406 0,-1.9 1.6,-3.5 3.5,-3.5 1.9,0 3.5,1.6 3.5,3.5 0,1 -0.4,1.806 -1,2.406 l 0,2.094 10,0 c 2.8,0 5,-2.2 5,-5 0,-2.8 -2.2,-5.000001 -5,-5.000001 -0.4,-2 -2.1,-3.505999 -4,-3.905999 -0.5,-4.5000005 -4.3,-8.094001 -9,-8.094001 z"
       id="path3346"
       style="fill:#54c357;fill-opacity:1;opacity:0.99999999" />
    <path
       sodipodi:nodetypes="csccsccccsccscc"
       id="path4"
       d="m 14.584746,17.118644 c -1.381,0 -2.5,1.119 -2.5,2.5 0,0.822 0.388,1.544 1,2 l 0,6.5 -2.5,0 c -0.3,0 -0.387,0.206 -0.188,0.406 l 3.875,5.188 c 0.2,0.2 0.425,0.2 0.625,0 l 3.875,-5.188 c 0.2,-0.2 0.113,-0.406 -0.188,-0.406 l -2.5,0 0,-6.5 c 0.612,-0.456 1,-1.178 1,-2 0,-1.381 -1.119,-2.5 -2.5,-2.5 z"
       inkscape:connector-curvature="0"
       style="stroke:none;stroke-opacity:1;fill:#3e3e3e;fill-opacity:1" />
    <path
       style="fill:#c35454;fill-opacity:1;opacity:0.99999999"
       id="path4156"
       d="m 14.084746,2.118644 c -4.7000004,0 -8.6000004,3.4000005 -9.0000004,8.000001 -2.9,0.9 -5,3.799999 -5,7 0,3.5 2.6,6.5 6,7 l 6.0000004,0 0,-2.094 c -0.6,-0.6 -1,-1.506 -1,-2.406 0,-1.9 1.6,-3.5 3.5,-3.5 1.9,0 3.5,1.6 3.5,3.5 0,1 -0.4,1.806 -1,2.406 l 0,2.094 10,0 c 2.8,0 5,-2.2 5,-5 0,-2.8 -2.2,-5.000001 -5,-5.000001 -0.4,-2 -2.1,-3.505999 -4,-3.905999 -0.5,-4.5000005 -4.3,-8.094001 -9,-8.094001 z"
       inkscape:connector-curvature="0"
       sodipodi:nodetypes="scscccsssccssccs" />
  </g>
</svg>
